<svg width="47" height="47" viewBox="0 0 47 47" fill="none" xmlns="http://www.w3.org/2000/svg">
<path d="M0 31.4167C0 33.14 0.76375 34.6871 1.95833 35.7642V39.25C1.95833 40.3271 2.83958 41.2083 3.91667 41.2083H5.875C6.95208 41.2083 7.83333 40.3271 7.83333 39.25V37.2917H23.5V39.25C23.5 40.3271 24.3812 41.2083 25.4583 41.2083H27.4167C28.4937 41.2083 29.375 40.3271 29.375 39.25V35.7642C30.5696 34.6871 31.3333 33.14 31.3333 31.4167V11.8333C31.3333 4.97917 24.3225 4 15.6667 4C7.01083 4 0 4.97917 0 11.8333V31.4167ZM6.85417 33.375C5.22875 33.375 3.91667 32.0629 3.91667 30.4375C3.91667 28.8121 5.22875 27.5 6.85417 27.5C8.47958 27.5 9.79167 28.8121 9.79167 30.4375C9.79167 32.0629 8.47958 33.375 6.85417 33.375ZM24.4792 33.375C22.8537 33.375 21.5417 32.0629 21.5417 30.4375C21.5417 28.8121 22.8537 27.5 24.4792 27.5C26.1046 27.5 27.4167 28.8121 27.4167 30.4375C27.4167 32.0629 26.1046 33.375 24.4792 33.375ZM27.4167 21.625H3.91667V11.8333H27.4167V21.625Z" fill="white"/>
</svg>
