<svg width="29" height="29" viewBox="0 0 29 29" fill="none" xmlns="http://www.w3.org/2000/svg">
<path d="M6.04175 9.66669H8.45841V19.3334H6.04175V9.66669ZM14.5001 9.66669H10.8751C10.2105 9.66669 9.66675 10.2104 9.66675 10.875V18.125C9.66675 18.7896 10.2105 19.3334 10.8751 19.3334H14.5001C15.1647 19.3334 15.7084 18.7896 15.7084 18.125V10.875C15.7084 10.2104 15.1647 9.66669 14.5001 9.66669ZM13.2917 16.9167H12.0834V12.0834H13.2917V16.9167ZM21.7501 9.66669H18.1251C17.4605 9.66669 16.9167 10.2104 16.9167 10.875V18.125C16.9167 18.7896 17.4605 19.3334 18.1251 19.3334H21.7501C22.4147 19.3334 22.9584 18.7896 22.9584 18.125V10.875C22.9584 10.2104 22.4147 9.66669 21.7501 9.66669ZM20.5417 16.9167H19.3334V12.0834H20.5417V16.9167Z" fill="black"/>
<path d="M2.41675 4.83331V24.1666H26.5834V4.83331H2.41675ZM4.83341 21.75V7.24998H24.1667V21.75H4.83341Z" fill="black"/>
</svg>
