<svg width="42" height="42" viewBox="0 0 42 42" fill="none" xmlns="http://www.w3.org/2000/svg">
<rect x="0.5" y="0.5" width="41" height="36.9355" rx="4.5" fill="white" stroke="black"/>
<path d="M16.6875 24.9878C15.8849 24.9878 15.2013 24.7694 14.6367 24.3326C14.0721 23.8923 13.6406 23.2549 13.3423 22.4204C13.044 21.5823 12.8949 20.5702 12.8949 19.3841C12.8949 18.2052 13.044 17.1984 13.3423 16.3639C13.6442 15.5258 14.0774 14.8866 14.642 14.4463C15.2102 14.0024 15.892 13.7804 16.6875 13.7804C17.483 13.7804 18.163 14.0024 18.7276 14.4463C19.2958 14.8866 19.729 15.5258 20.0273 16.3639C20.3292 17.1984 20.4801 18.2052 20.4801 19.3841C20.4801 20.5702 20.331 21.5823 20.0327 22.4204C19.7344 23.2549 19.3029 23.8923 18.7383 24.3326C18.1737 24.7694 17.4901 24.9878 16.6875 24.9878ZM16.6875 23.816C17.483 23.816 18.1009 23.4324 18.5412 22.6654C18.9815 21.8983 19.2017 20.8046 19.2017 19.3841C19.2017 18.4395 19.1005 17.6352 18.8981 16.9711C18.6992 16.3071 18.4116 15.801 18.0352 15.453C17.6623 15.105 17.2131 14.931 16.6875 14.931C15.8991 14.931 15.283 15.3199 14.8391 16.0976C14.3952 16.8717 14.1733 17.9672 14.1733 19.3841C14.1733 20.3287 14.2727 21.1313 14.4716 21.7918C14.6705 22.4523 14.9563 22.9548 15.3292 23.2993C15.7056 23.6437 16.1584 23.816 16.6875 23.816ZM26.3395 13.9296V24.8387H25.0185V15.3145H24.9545L22.2912 17.083V15.7407L25.0185 13.9296H26.3395Z" fill="black"/>
<rect x="9" y="41.5" width="8.03226" height="24" rx="4.01613" transform="rotate(-90 9 41.5)" fill="white" stroke="black"/>
</svg>
