<svg width="29" height="29" viewBox="0 0 29 29" fill="none" xmlns="http://www.w3.org/2000/svg">
<rect width="29" height="29" rx="5" fill="#635E9A"/>
<path d="M23.1275 15.6359C23.1758 15.2734 23.2 14.8988 23.2 14.5C23.2 14.1134 23.1758 13.7267 23.1154 13.3642L25.5683 11.455C25.7858 11.2859 25.8462 10.9596 25.7133 10.7179L23.3933 6.70627C23.2483 6.44044 22.9462 6.35586 22.6804 6.44044L19.7925 7.60044C19.1883 7.14127 18.5479 6.75461 17.835 6.46461L17.4 3.39544C17.3516 3.10544 17.11 2.90002 16.82 2.90002H12.18C11.89 2.90002 11.6604 3.10544 11.6121 3.39544L11.1771 6.46461C10.4641 6.75461 9.81164 7.15336 9.21955 7.60044L6.33164 6.44044C6.0658 6.34377 5.76372 6.44044 5.61872 6.70627L3.3108 10.7179C3.1658 10.9717 3.21414 11.2859 3.4558 11.455L5.90872 13.3642C5.8483 13.7267 5.79997 14.1254 5.79997 14.5C5.79997 14.8746 5.82414 15.2734 5.88455 15.6359L3.43164 17.545C3.21414 17.7142 3.15372 18.0404 3.28664 18.2821L5.60664 22.2938C5.75164 22.5596 6.05372 22.6442 6.31955 22.5596L9.20747 21.3996C9.81164 21.8588 10.4521 22.2454 11.165 22.5354L11.6 25.6046C11.6604 25.8946 11.89 26.1 12.18 26.1H16.82C17.11 26.1 17.3516 25.8946 17.3879 25.6046L17.8229 22.5354C18.5358 22.2454 19.1883 21.8588 19.7804 21.3996L22.6683 22.5596C22.9341 22.6563 23.2362 22.5596 23.3812 22.2938L25.7012 18.2821C25.8462 18.0163 25.7858 17.7142 25.5562 17.545L23.1275 15.6359ZM14.5 18.85C12.1075 18.85 10.15 16.8925 10.15 14.5C10.15 12.1075 12.1075 10.15 14.5 10.15C16.8925 10.15 18.85 12.1075 18.85 14.5C18.85 16.8925 16.8925 18.85 14.5 18.85Z" fill="white"/>
</svg>
